<svg width="70" height="70" viewBox="0 0 70 70" fill="none" xmlns="http://www.w3.org/2000/svg">
<path d="M35 11.6666C34.2265 11.6666 33.4846 11.9739 32.9376 12.5209C32.3906 13.0679 32.0833 13.8097 32.0833 14.5833V58.3333C32.0833 59.1068 32.3906 59.8487 32.9376 60.3957C33.4846 60.9427 34.2265 61.25 35 61.25C35.7735 61.25 36.5154 60.9427 37.0624 60.3957C37.6094 59.8487 37.9167 59.1068 37.9167 58.3333V14.5833C37.9167 13.8097 37.6094 13.0679 37.0624 12.5209C36.5154 11.9739 35.7735 11.6666 35 11.6666Z" fill="#231F20"/>
<path d="M55.4167 34.9999C54.6431 34.9999 53.9012 35.3072 53.3543 35.8542C52.8073 36.4012 52.5 37.1431 52.5 37.9166V58.3333C52.5 59.1068 52.8073 59.8487 53.3543 60.3957C53.9012 60.9427 54.6431 61.2499 55.4167 61.2499C56.1902 61.2499 56.9321 60.9427 57.4791 60.3957C58.026 59.8487 58.3333 59.1068 58.3333 58.3333V37.9166C58.3333 37.1431 58.026 36.4012 57.4791 35.8542C56.9321 35.3072 56.1902 34.9999 55.4167 34.9999Z" fill="#231F20"/>
<path d="M14.5833 23.3334C13.8098 23.3334 13.0679 23.6407 12.5209 24.1876C11.974 24.7346 11.6667 25.4765 11.6667 26.25V58.3334C11.6667 59.1069 11.974 59.8488 12.5209 60.3958C13.0679 60.9428 13.8098 61.25 14.5833 61.25C15.3569 61.25 16.0987 60.9428 16.6457 60.3958C17.1927 59.8488 17.5 59.1069 17.5 58.3334V26.25C17.5 25.4765 17.1927 24.7346 16.6457 24.1876C16.0987 23.6407 15.3569 23.3334 14.5833 23.3334Z" fill="#231F20"/>
</svg>
