<svg width="26" height="26" viewBox="0 0 26 26" fill="none" xmlns="http://www.w3.org/2000/svg">
<path d="M9.02538 21.0072C10.5657 21.0588 12.1007 20.801 13.5397 20.2492C14.9787 19.6974 16.2925 18.8628 17.4034 17.7946C18.5143 16.7264 19.3999 15.4463 20.0076 14.03C20.6154 12.6138 20.9332 11.0901 20.942 9.54892C21.6479 8.67539 22.1721 7.66957 22.4837 6.59058C22.507 6.50533 22.5051 6.41518 22.4783 6.33097C22.4515 6.24676 22.401 6.1721 22.3327 6.11596C22.2645 6.05983 22.1815 6.02461 22.0937 6.01457C22.0059 6.00452 21.917 6.02007 21.8379 6.05933C21.4686 6.2371 21.0528 6.29452 20.6492 6.2235C20.2455 6.15249 19.8743 5.95662 19.5879 5.6635C19.2222 5.26306 18.7799 4.94009 18.2871 4.71373C17.7943 4.48738 17.2611 4.36223 16.7191 4.34572C16.1771 4.32921 15.6372 4.42166 15.1316 4.6176C14.6259 4.81354 14.1648 5.10898 13.7754 5.48641C13.2423 6.00273 12.8518 6.64818 12.6419 7.36003C12.4319 8.07189 12.4098 8.82595 12.5775 9.54892C9.08788 9.75725 6.69205 8.101 4.77538 5.83016C4.7178 5.76496 4.64248 5.71793 4.55862 5.69482C4.47475 5.67171 4.38597 5.67353 4.30312 5.70004C4.22026 5.72655 4.14693 5.77662 4.09206 5.84412C4.03719 5.91162 4.00316 5.99364 3.99413 6.08017C3.629 8.10561 3.89239 10.1943 4.74894 12.0657C5.60549 13.937 7.01418 15.5015 8.7858 16.5489C7.59792 17.9112 5.92977 18.7621 4.12955 18.9239C4.0331 18.9399 3.94407 18.9857 3.87492 19.0548C3.80576 19.1239 3.75994 19.2129 3.74387 19.3093C3.72779 19.4057 3.74227 19.5048 3.78528 19.5926C3.82829 19.6804 3.89767 19.7525 3.98372 19.7989C5.54988 20.5816 7.27458 20.9949 9.02538 21.0072Z" fill="#231F20"/>
</svg>
