<svg width="70" height="71" viewBox="0 0 70 71" fill="none" xmlns="http://www.w3.org/2000/svg">
<path d="M54.5145 0H15.4504C6.93694 0 0 6.93694 0 15.4505V38.2232V38.9239C0 47.4725 6.93694 54.3744 15.4504 54.3744H28.9039C30.8308 54.3744 32.4074 55.951 32.4074 57.8779V61.2763C32.4074 63.2032 30.8308 64.7798 28.9039 64.7798H20.4254C18.989 64.7798 17.7978 65.971 17.7978 67.4074C17.7978 68.8438 18.954 70.0701 20.4254 70.0701H49.6797C51.1161 70.0701 52.3073 68.8789 52.3073 67.4425C52.3073 66.006 51.1161 64.8148 49.6797 64.8148H41.2012C39.2743 64.8148 37.6977 63.2382 37.6977 61.3113V57.9129C37.6977 55.986 39.2743 54.4094 41.2012 54.4094H54.5495C63.0981 54.4094 70 47.4725 70 38.959V38.2583V15.4855C69.965 6.93694 63.028 0 54.5145 0Z" fill="#292D32"/>
</svg>
