<svg width="14" height="14" viewBox="0 0 14 14" fill="none" xmlns="http://www.w3.org/2000/svg">
<path d="M10.9492 7.79333C10.9002 7.73426 10.8401 7.68544 10.7722 7.64965C10.7043 7.61386 10.6301 7.59181 10.5537 7.58477C10.4773 7.57772 10.4002 7.58582 10.327 7.6086C10.2537 7.63137 10.1856 7.66838 10.1267 7.7175L7.58335 9.835V2.91667C7.58335 2.76196 7.52189 2.61358 7.4125 2.50419C7.3031 2.39479 7.15473 2.33333 7.00002 2.33333C6.84531 2.33333 6.69693 2.39479 6.58754 2.50419C6.47814 2.61358 6.41668 2.76196 6.41668 2.91667V9.835L3.87335 7.7175C3.81436 7.66847 3.7463 7.63154 3.67304 7.60882C3.59979 7.5861 3.52277 7.57803 3.44639 7.58507C3.37002 7.59211 3.29578 7.61413 3.22791 7.64986C3.16004 7.6856 3.09988 7.73435 3.05085 7.79333C3.00182 7.85232 2.96489 7.92038 2.94217 7.99364C2.91945 8.0669 2.91138 8.14391 2.91842 8.22029C2.92546 8.29666 2.94748 8.3709 2.98321 8.43877C3.01895 8.50664 3.0677 8.56681 3.12668 8.61583L6.62668 11.5325L6.71418 11.585L6.79002 11.6258C6.92516 11.678 7.07487 11.678 7.21002 11.6258L7.28585 11.585L7.37335 11.5325L10.8733 8.61583C10.9324 8.56686 10.9812 8.50672 11.017 8.43885C11.0528 8.37098 11.0749 8.29672 11.0819 8.22031C11.089 8.14391 11.0809 8.06687 11.0581 7.9936C11.0353 7.92033 10.9983 7.85228 10.9492 7.79333Z" fill="white"/>
</svg>
