<svg width="25" height="25" viewBox="0 0 25 25" fill="none" xmlns="http://www.w3.org/2000/svg">
<path d="M12.5 1.04169C9.49321 1.01114 6.59729 2.17566 4.4487 4.27932C2.30011 6.38299 1.07467 9.25366 1.04169 12.2604C1.05327 14.6367 1.81767 16.9481 3.22509 18.8627C4.6325 20.7773 6.61051 22.1966 8.87502 22.9167C9.44794 23.0209 9.65627 22.6771 9.65627 22.375C9.65627 22.0729 9.65627 21.4063 9.65627 20.4688C6.46877 21.1459 5.79169 18.9688 5.79169 18.9688C5.5795 18.2853 5.12839 17.7011 4.52085 17.3229C3.47919 16.6354 4.60419 16.6459 4.60419 16.6459C4.96424 16.694 5.30872 16.823 5.6118 17.0233C5.91488 17.2235 6.16869 17.4898 6.35419 17.8021C6.67745 18.3627 7.20787 18.7739 7.83128 18.9473C8.4547 19.1206 9.12126 19.0423 9.68752 18.7292C9.74576 18.1588 10.0041 17.6274 10.4167 17.2292C7.87502 16.9479 5.20835 15.9896 5.20835 11.6875C5.18562 10.5653 5.60027 9.47827 6.3646 8.65628C6.01651 7.69281 6.05761 6.6316 6.47919 5.69794C6.47919 5.69794 7.44794 5.39586 9.60419 6.84378C11.4812 6.34361 13.4564 6.34361 15.3334 6.84378C17.5209 5.39586 18.4584 5.69794 18.4584 5.69794C18.8799 6.6316 18.921 7.69281 18.5729 8.65628C19.355 9.4632 19.7922 10.543 19.7917 11.6667C19.7917 15.9792 17.1042 16.9271 14.5834 17.2084C14.8594 17.4764 15.0726 17.8022 15.2077 18.1624C15.3428 18.5226 15.3964 18.9083 15.3646 19.2917V22.3646C15.3646 22.3646 15.5729 23.0209 16.1459 22.9063C18.4039 22.1817 20.3753 20.7621 21.7783 18.8502C23.1814 16.9383 23.9444 14.6319 23.9584 12.2604C23.9254 9.25366 22.6999 6.38299 20.5513 4.27932C18.4028 2.17566 15.5068 1.01114 12.5 1.04169Z" fill="#231F20"/>
</svg>
