<svg width="26" height="26" viewBox="0 0 26 26" fill="none" xmlns="http://www.w3.org/2000/svg">
<path d="M16.0855 8.92393C15.2872 8.92119 14.4961 9.0759 13.7575 9.37921C13.019 9.68253 12.3475 10.1285 11.7816 10.6916C11.2156 11.2547 10.7661 11.9238 10.459 12.6608C10.1519 13.3978 9.99316 14.188 9.99179 14.9864L9.99179 21.1114C9.99179 21.3601 10.0906 21.5985 10.2664 21.7743C10.4422 21.9502 10.6806 22.0489 10.9293 22.0489L13.1168 22.0489C13.3654 22.0489 13.6039 21.9502 13.7797 21.7743C13.9555 21.5985 14.0543 21.3601 14.0543 21.1114L14.0543 14.9864C14.0541 14.7025 14.1137 14.4217 14.2293 14.1623C14.3449 13.9029 14.5139 13.6708 14.7252 13.4812C14.9365 13.2915 15.1854 13.1484 15.4557 13.0614C15.726 12.9744 16.0116 12.9453 16.2939 12.976C16.8001 13.0398 17.2654 13.2871 17.6014 13.6711C17.9374 14.0551 18.1208 14.5491 18.1168 15.0593L18.1168 21.1114C18.1168 21.3601 18.2156 21.5985 18.3914 21.7743C18.5672 21.9502 18.8056 22.0489 19.0543 22.0489L21.2418 22.0489C21.4904 22.0489 21.7289 21.9502 21.9047 21.7743C22.0805 21.5985 22.1793 21.3601 22.1793 21.1114L22.1793 14.9864C22.1779 14.188 22.0191 13.3978 21.712 12.6608C21.4049 11.9238 20.9555 11.2547 20.3895 10.6916C19.8235 10.1285 19.1521 9.68253 18.4135 9.37921C17.675 9.0759 16.8839 8.92119 16.0855 8.92393Z" fill="#231F20"/>
<path d="M7.17935 9.86145L4.36685 9.86145C3.84909 9.86145 3.42935 10.2812 3.42935 10.7989L3.42935 21.1115C3.42935 21.6292 3.84908 22.0489 4.36685 22.0489L7.17935 22.0489C7.69712 22.0489 8.11685 21.6292 8.11685 21.1115L8.11685 10.799C8.11685 10.2812 7.69712 9.86145 7.17935 9.86145Z" fill="#231F20"/>
<path d="M5.7731 7.98642C7.06752 7.98642 8.11685 6.93709 8.11685 5.64267C8.11685 4.34825 7.06752 3.29892 5.7731 3.29892C4.47868 3.29892 3.42935 4.34825 3.42935 5.64267C3.42935 6.93709 4.47868 7.98642 5.7731 7.98642Z" fill="#231F20"/>
</svg>
